# xmcd
#
# Track frame offsets:
#	150
#	12842
#	30756
#	43827
#	55670
#	68080
#	82765
#	94225
#	111335
#	125170
#	136425
#	148562
#	158745
#	174267
#	188154
#	199920
#
# Disc length: 2833
#
# Revision: 1
# Processed by: cddbd v1.5.1PL0 Copyright (c) Steve Scherf et al.
# Submitted via: ExactAudioCopy v0.90b4
# Normalized: r0:DSETVAR1,TDELIM( - )
#
DISCID=d20b0f10
DTITLE=Various Artist - 48 Nr.1 Country Hits Vol. 2 CD 1
DYEAR=2002
DGENRE=Country
TTITLE0=Johnny Cash - I Walk The Line
TTITLE1=Billy Swan - I Can Help
TTITLE2=Dolly Parton - Here You Come Again
TTITLE3=Lynn Anderson - You're My Man
TTITLE4=Charlie Rich - A Very Special Love Song
TTITLE5=Waylon Jennings - Luckenbach, Texas (Back To The Basics Of Love)
TTITLE6=Freddy Fender - Before The Next Teardrop Falls
TTITLE7=Ray Price - You're The Best Thing Ever Happened To Me
TTITLE8=Tanya Tucker - What's Your Mama's Name
TTITLE9=Marty Robbins - A White Sport Coat (And A Pink Carnation)
TTITLE10=George Jones - The Door
TTITLE11=David Houston - With One Exception
TTITLE12=Kris Kristofferson - Why Me
TTITLE13=Sonny James - Is It Wrong (For Loving You)
TTITLE14=Henson Cargill - Skip A Rope
TTITLE15=Tammy Wynette - Take Me To Your World
EXTD=
EXTT0=
EXTT1=
EXTT2=
EXTT3=
EXTT4=
EXTT5=
EXTT6=
EXTT7=
EXTT8=
EXTT9=
EXTT10=
EXTT11=
EXTT12=
EXTT13=
EXTT14=
EXTT15=
PLAYORDER=
